<svg xmlns="http://www.w3.org/2000/svg" viewBox="0 0 40 40" fill="none" aria-hidden="true">
  <defs>
    <linearGradient id="mcg" x1="8" y1="4" x2="32" y2="36" gradientUnits="userSpaceOnUse">
      <stop stop-color="#6366f1"/>
      <stop offset="1" stop-color="#a855f7"/>
    </linearGradient>
  </defs>
  <rect width="40" height="40" rx="12" fill="url(#mcg)"/>
  <path fill="#fff" fill-opacity=".95" d="M20 10c-2.2 0-4.1 1.1-5.2 2.8-.6-.4-1.3-.6-2.1-.6-1.9 0-3.4 1.5-3.4 3.4 0 .3 0 .6.1.9-1.1 1-1.8 2.4-1.8 4 0 2.8 2.1 5.1 4.8 5.4.3 2.5 2.4 4.4 5 4.4.6 0 1.1-.1 1.6-.3.6.9 1.6 1.5 2.8 1.5 1.2 0 2.2-.6 2.8-1.5.5.2 1.1.3 1.6.3 2.6 0 4.7-1.9 5-4.4 2.7-.3 4.8-2.6 4.8-5.4 0-1.6-.7-3-1.8-4 .1-.3.1-.6.1-.9 0-1.9-1.5-3.4-3.4-3.4-.8 0-1.5.2-2.1.6-1.1-1.7-3-2.8-5.2-2.8Z"/>
</svg>
