<svg xmlns="http://www.w3.org/2000/svg" viewBox="0 0 24 24" role="img" aria-label="Google icon">
  <path fill="#4285F4" d="M23.49 12.27c0-.79-.07-1.55-.2-2.27H12v4.3h6.46a5.53 5.53 0 0 1-2.4 3.63v3.02h3.87c2.26-2.08 3.56-5.14 3.56-8.68z"/>
  <path fill="#34A853" d="M12 24c3.24 0 5.96-1.07 7.95-2.9l-3.87-3.02c-1.07.72-2.43 1.15-4.08 1.15-3.14 0-5.8-2.12-6.75-4.97H1.25v3.12A12 12 0 0 0 12 24z"/>
  <path fill="#FBBC05" d="M5.25 14.26a7.2 7.2 0 0 1 0-4.52V6.62H1.25a12 12 0 0 0 0 10.76l4-3.12z"/>
  <path fill="#EA4335" d="M12 4.77c1.76 0 3.34.61 4.58 1.81l3.44-3.44C17.95 1.14 15.24 0 12 0A12 12 0 0 0 1.25 6.62l4 3.12c.95-2.85 3.61-4.97 6.75-4.97z"/>
</svg>
